<svg width="200" height="200" viewBox="0 0 100 100" xmlns="http://www.w3.org/2000/svg">
    <!-- Outer Decorative Ring -->
    <circle cx="50" cy="50" r="48" fill="none" stroke="#FFC107" stroke-width="1" stroke-dasharray="2 2"/>
    <circle cx="50" cy="50" r="45" fill="none" stroke="#FFC107" stroke-width="2"/>
    
    <!-- Main Diamond Symbol -->
    <path d="M50 15 L80 50 L50 85 L20 50 Z" fill="#2d8650" opacity="0.1"/>
    <path d="M50 15 L80 50 L50 85 L20 50 Z" fill="none" stroke="#FFC107" stroke-width="3"/>
    
    <!-- DT Interwoven -->
    <g fill="#FFC107">
        <!-- D -->
        <path d="M40 35 V65 H48 C58 65 60 50 58 50 C60 50 58 35 48 35 H40 Z M45 40 H48 C53 40 54 48 54 50 C54 52 53 60 48 60 H45 V40 Z"/>
        <!-- T horizontal bar -->
        <rect x="35" y="48" width="30" height="4"/>
    </g>
</svg>
